#!OML:ASF F:\VICON\USERDATA\INSTALL\rory3\rory3.ASF
:FULLY-SPECIFIED
:DEGREES
60
root 0.20594646213568318 17.85651018725717 13.874249381023056 -0.4405483257670064 -4.521077136365718 -7.752449616372468
lfemur -25.122840924510683 -6.776426973610381 -9.569368982597698
ltibia 16.318818541675157
lfoot -10.207482334499769 1.8842922019866926
ltoes -8.076987623613599
rfemur 1.392021141517997 5.341241678680631 34.08371295585806
rtibia 30.252633769929393
rfoot -6.496900466244597 -7.3840807595673255
rtoes 5.929637860480808
lowerback 9.890276193129221 2.542553776930423 6.5950310581526805
upperback -0.23854685673391637 3.9539334743018717 1.9524925294659614
thorax -5.0440572428833805 1.752322163513812 -2.567091977754724
lowerneck -16.272437161078294 -3.0249010348820757 -1.239992975959248
upperneck 22.24590959425993 -3.819033627493001 -0.5035500961906848
head 9.801012306760496 -1.8984195303995086 -0.5178947108267644
lclavicle -1.38848362786626e-15 -1.844712106968792e-15
lhumerus -34.920157442396686 9.748520053146128 79.04442461309813
lradius 21.73214283352297
lwrist 0.5976410887747958
lhand -26.927684890817858 23.57527306075539
lfingers 7.125019999999999
lthumb -0.35862230253330074 53.93419719708923
rclavicle -1.3846248002667181e-15 -1.841093189642079e-15
rhumerus -21.32490033777377 -13.847336764968823 -79.43817631172192
rradius 28.98324538313781
rwrist -1.0168347265149018
rhand -19.420699949969812 23.67118070666727
rfingers 7.125019999999999
rthumb 6.952562992082298 -6.096828235786388
61
root 0.2623058774152898 17.783178373200602 14.735430034740334 -0.1968134036292679 -4.310646799789102 -7.368964672848881
lfemur -24.47438670435797 -5.669009062456234 -10.690938191704452
ltibia 13.565636887824205
lfoot -10.717245412747857 1.3222848768977404
ltoes -7.200257161533763
rfemur 2.5702258358242087 5.524399171392135 33.54075543666755
rtibia 31.622688458206444
rfoot -5.1531783297063445 -7.056027521210743
rtoes 6.189192762981733
lowerback 9.532631707061547 2.5906778093299963 6.460781260618186
upperback -0.2066424435114048 3.9978262320593614 1.8438625700356226
thorax -4.973946937342457 1.777908586732382 -2.501667410751266
lowerneck -16.214097827703245 -3.088157493122875 -1.267068535894521
upperneck 22.274412037148387 -3.9649925253208718 -0.3555772918047191
head 9.837188499665983 -1.9478109035622562 -0.5062815693627625
lclavicle -1.3866506248568821e-15 -1.8432434182504636e-15
lhumerus -34.96740054068599 9.958341688105182 78.77610649245048
lradius 21.02871272501733
lwrist 0.07689820470151121
lhand -26.77237063838893 23.430821709660094
lfingers 7.125019999999999
lthumb -0.2342987976028833 53.66546333583947
rclavicle -1.3855186407431e-15 -1.8419237197918936e-15
rhumerus -22.056123391951733 -14.956354165360104 -78.98325243642408
rradius 28.657577404408773
rwrist -0.3824611319343161
rhand -19.406393907792996 23.72758710540522
rfingers 7.125019999999999
rthumb 6.978450836332964 -6.000185903034731
62
root 0.3227802220356275 17.707281539118384 15.764824490958556 -0.49183532632127047 -3.538093721931048 -7.17415079195875
lfemur -24.564788946631033 -3.81021619303851 -12.07341175694497
ltibia 16.955111359096524
lfoot -9.396680251345991 0.46768422182711333
ltoes -7.562691280436971
rfemur 3.5905024998472346 4.8958465754506895 33.17464784678546
rtibia 33.883658480147915
rfoot -3.7116449005876797 -6.996485440400823
rtoes 7.441079781431261
lowerback 9.447088811307168 2.493487800268205 6.401910638302595
upperback -0.2468674351530731 3.900197977493176 1.7666010624142194
thorax -5.024704870136492 1.7424152362230332 -2.347348218005605
lowerneck -16.016904830415836 -3.1629428231245553 -1.3274678032671332
upperneck 22.53942129567621 -4.133539457065999 -0.20398994564720396
head 9.92559326153094 -2.0062955800215323 -0.4956660670435113
lclavicle -1.3880277434276576e-15 -1.843940756436057e-15
lhumerus -34.727393637344726 10.12876807746929 78.62842240409242
lradius 20.394266789414537
lwrist -0.6049777800090057
lhand -26.511929032690677 23.27464244936924
lfingers 7.125019999999999
lthumb 0.05918560316760424 53.43081803510903
rclavicle -1.3859090036836176e-15 -1.842286352758068e-15
rhumerus -23.25589348745938 -16.367528294400586 -78.41518551325595
rradius 28.077779343817205
rwrist 0.6033467140376665
rhand -19.30373308114757 23.744149640670543
rfingers 7.125019999999999
rthumb 7.0435689931357 -6.00460658010456
63
root 0.40618701051400374 17.69512430895928 16.97597529917162 -1.2442049934667663 -4.18740907607978 -6.684842442984364
lfemur -24.099288573402255 -3.3860575137705196 -13.214799437178584
ltibia 20.7138267669448
lfoot -7.865908036674116 -1.596565646668136
ltoes -8.226621945494621
rfemur 3.864119361137851 5.091641253557062 32.073667229154026
rtibia 37.57266888013309
rfoot -1.9533902615456613 -7.181693237753459
rtoes 9.237052018700798
lowerback 9.625933283997002 2.7182667670638625 6.232138046485443
upperback -0.21621866130680903 4.041397686142579 1.6562310925551964
thorax -5.026193970737779 1.816937835633661 -2.1882985820197387
lowerneck -15.763854936712606 -3.221120565015399 -1.4059077438989773
upperneck 22.970080123197963 -4.267300994459623 -0.053728725930128764
head 10.056071711602518 -2.0538339810822466 -0.4805539832521243
lclavicle -1.3877060699432102e-15 -1.843627467843699e-15
lhumerus -34.58577565835527 9.7323549023711 78.6259237619399
lradius 20.22362547838555
lwrist -1.301268499282727
lhand -26.167134606716715 23.30777349552568
lfingers 7.125019999999999
lthumb 0.4045251396770022 53.38798883084159
rclavicle -1.3857474084782463e-15 -1.8421356346222547e-15
rhumerus -24.59951100144788 -17.763023781922765 -77.81599886381213
rradius 27.264781183997968
rwrist 1.8212137076905517
rhand -19.148572464450776 23.668279093919292
rfingers 7.125019999999999
rthumb 7.144069999248654 -6.150033033400251
64
root 0.49267020305032183 17.784105338582958 18.07676837486533 -1.6883161511059837 -3.632821911837503 -4.3458265090521
lfemur -22.4691669338356 -3.306177579193982 -16.519385044145757
ltibia 23.18014861978707
lfoot -6.709585576317048 -3.438344977105519
ltoes -8.54775653996385
rfemur 2.1859010743935574 3.800232417394344 28.60470989771388
rtibia 43.81260300464017
rfoot 0.06362863536184982 -7.463584979763729
rtoes 11.273497478585561
lowerback 9.225851293788612 2.70628912991168 4.221434702292204
upperback -0.043911604976474256 3.8249412368813354 1.1426320250487785
thorax -4.921737607207906 1.7755716987899095 -1.7947220337002727
lowerneck -15.61614738451073 -3.210604806124105 -1.4669147909737172
upperneck 23.435361718712464 -4.277922234419666 0.04533836296615136
head 10.20296697722142 -2.058640988211363 -0.47022595148539476
lclavicle -1.3847392246876018e-15 -1.8411512920176685e-15
lhumerus -34.399078363547126 8.885627390214335 78.76319927139483
lradius 20.616421516249734
lwrist -1.547973917829815
lhand -25.857439114868967 23.46028424920506
lfingers 7.125019999999999
lthumb 0.6629569660773957 53.45023470377507
rclavicle -1.385819063190939e-15 -1.842202011009753e-15
rhumerus -25.7395484549595 -19.012673890969985 -77.3696235750753
rradius 26.29181566278671
rwrist 3.099180716117218
rhand -18.936054023793826 23.457495660527663
rfingers 7.125019999999999
rthumb 7.302526191759583 -6.437414052149066
65
root 0.5785309727083912 17.80412208534568 18.85068822417109 -2.153009911278068 -3.261401655361979 -3.813660967762644
lfemur -20.228727960388998 -2.878697681386021 -18.116353423572143
ltibia 25.299267687223505
lfoot -5.517439886034365 -4.239004925653356
ltoes -9.038148130558696
rfemur -1.0926938985700048 2.076124469793324 27.187067394548563
rtibia 51.234809238416325
rfoot 1.2861924705408079 -7.90094597802579
rtoes 11.923628159561519
lowerback 9.312085041898799 2.632608230866829 3.7758412017645897
upperback -0.09467696098695502 3.8026288278224847 0.9564375410232427
thorax -5.197103106717061 1.783757020914908 -1.5621587263993353
lowerneck -15.53619856091057 -3.1233203504019684 -1.5057461559739518
upperneck 23.74445793295774 -4.1361708657975775 0.05374074718194432
head 10.307132500445247 -2.0104677625790046 -0.47325707740881756
lclavicle -1.38513076466677e-15 -1.841082914346558e-15
lhumerus -34.06497919509511 7.798839758687141 78.99292852326128
lradius 21.44406161092262
lwrist -1.1040202800418366
lhand -25.732663117353642 23.488801543749812
lfingers 7.125019999999999
lthumb 0.7344297462911067 53.406536891894156
rclavicle -1.385901739019425e-15 -1.842278841989831e-15
rhumerus -26.550026448214123 -20.127463775691023 -76.89828295614745
rradius 25.126934174596965
rwrist 4.480304998281317
rhand -18.662874571584087 23.134448220116912
rfingers 7.125019999999999
rthumb 7.530965056959544 -6.825775659476787
66
root 0.6569741463701904 17.870539244943664 19.452043797629436 -2.6968775750275116 -4.618957840923989 -3.1942068370097325
lfemur -17.699808370991555 -2.744937090199102 -19.33126903771872
ltibia 26.35027231412092
lfoot -5.143166866080836 -4.002907863100621
ltoes -9.76379160687689
rfemur -5.703622917208037 2.511761707578057 25.832121546379604
rtibia 58.81655195672544
rfoot 1.163283132469994 -8.223570490978137
rtoes 10.595122602669505
lowerback 9.956720621181734 2.8470725074903425 3.3531111721621447
upperback -0.023647403746785506 3.9714684847680175 0.8165830422930889
thorax -5.571065571474133 1.8452236271791125 -1.3400799181646594
lowerneck -15.53848427443983 -2.954205842964121 -1.524039754361499
upperneck 23.903794470721227 -3.824903208018687 -0.03207336519251392
head 10.368997514147466 -1.903417654224981 -0.4832654456148359
lclavicle -1.3835159335705896e-15 -1.839924928322205e-15
lhumerus -33.54246714057856 6.697006070201564 79.27981071418802
lradius 22.569782604882715
lwrist 0.10573065965807737
lhand -25.93098871199721 23.265223248251516
lfingers 7.125019999999999
lthumb 0.5450538380574135 53.185776552087205
rclavicle -1.3852132181445507e-15 -1.8416392304551947e-15
rhumerus -27.21084246683978 -21.243779501958805 -76.28977645615535
rradius 23.919429509443123
rwrist 6.026038047606594
rhand -18.36676047075291 22.71539350766945
rfingers 7.125019999999999
rthumb 7.791837456907592 -7.306182032658247
